# xmcd
#
# Track frame offsets: 
#        150
#        17516
#        35381
#        51044
#        64964
#        80700
#        97350
#        113633
#        128711
#        145059
#        159651
#        176609
#        192493
#        209061
#        227012
#        241661
#        272054
#        287675
#        303851
#
# Disc length: 4449 seconds
#
# Revision: 0
# Processed by: cddbd v1.5.2PL0 Copyright (c) Steve Scherf et al.
# Submitted via: ExactAudioCopy v1.0b3
#
DISCID=10115f13
DTITLE=Various Artist - Trance Dance Vol. 19 - CD 1
DYEAR=1900
DGENRE=
TTITLE0=Tiesto Feat. Christian Burns - In The Dark (Carl B. Radio Mix)
TTITLE1=ATB With Heather Nova - Renegade (Airplay Mix)
TTITLE2=Crew 7 - Such A Shame (Sunset Crew Radio Mix)
TTITLE3=STFU - Shut The Fuck Up (Jens O. Radio Mix)
TTITLE4=Brisby and Jingles - Heaven (Radio Mix)
TTITLE5=Alex Megane - Tonight (Is All We Have) (Radio Edit)
TTITLE6=Comiccon - Komodo (Dream Dance Alliance Radio Mix)
TTITLE7=Kindervater Feat. Nadja - Forever (The Real Booty Babes Mix)
TTITLE8=4 Clubbers Feat. Silvy - Time (The Hitmen Remix Edit)
TTITLE9=Deep.Spirit - No Cover Song
TTITLE10=NDS Vs. Tom E - 2gether 4ever (Clubraiders Rmx Edit)
TTITLE11=DJ Andy Garcia Vs. Hands Up Squad and Clubraiders - Movin' On (
TTITLE11=Montana and Graziano Piano Edit)
TTITLE12=Rushroom - Don't Give Up (Original Radio Mix)
TTITLE13=Punkrockerz - Punkrocker
TTITLE14=Baracuda - La Di Da (Radio Version)
TTITLE15=Mikesh - 2 Know Good (Club Mix)
TTITLE16=Jordan - Jordan Is Back (Rock The Nation)
TTITLE17=DT8 Project - Hold Me Till The End (Ronski Speed Remix Edit)
TTITLE18=Thomas Bronzwaer - Constellation (Original Mix)
EXTD=
EXTT0=
EXTT1=
EXTT2=
EXTT3=
EXTT4=
EXTT5=
EXTT6=
EXTT7=
EXTT8=
EXTT9=
EXTT10=
EXTT11=
EXTT12=
EXTT13=
EXTT14=
EXTT15=
EXTT16=
EXTT17=
EXTT18=
PLAYORDER=
